<svg width="20" height="20" viewBox="0 0 20 20" fill="none" xmlns="http://www.w3.org/2000/svg">
<path fill-rule="evenodd" clip-rule="evenodd" d="M0 9.99999C0 4.47715 4.47715 0 9.99999 0C15.5228 0 20 4.47715 20 9.99999C20 15.5228 15.5228 20 9.99999 20C4.47715 20 0 15.5228 0 9.99999ZM10.0005 4.66666C8.55204 4.66666 8.37026 4.673 7.80136 4.69889C7.23358 4.72489 6.84602 4.81478 6.5069 4.94667C6.15612 5.08289 5.85856 5.26511 5.56212 5.56167C5.26545 5.85812 5.08322 6.15568 4.94656 6.50635C4.81433 6.84557 4.72433 7.23325 4.69878 7.80081C4.67333 8.3697 4.66666 8.55159 4.66666 10C4.66666 11.4485 4.67311 11.6297 4.69889 12.1986C4.725 12.7664 4.81489 13.154 4.94667 13.4931C5.083 13.8439 5.26523 14.1414 5.56178 14.4379C5.85812 14.7345 6.15568 14.9172 6.50624 15.0534C6.84557 15.1853 7.23325 15.2752 7.80092 15.3012C8.36981 15.3271 8.55148 15.3334 9.99983 15.3334C11.4484 15.3334 11.6296 15.3271 12.1985 15.3012C12.7663 15.2752 13.1543 15.1853 13.4936 15.0534C13.8443 14.9172 14.1414 14.7345 14.4378 14.4379C14.7344 14.1414 14.9167 13.8439 15.0533 13.4932C15.1844 13.154 15.2744 12.7663 15.3011 12.1987C15.3267 11.6298 15.3333 11.4485 15.3333 10C15.3333 8.55159 15.3267 8.36981 15.3011 7.80092C15.2744 7.23313 15.1844 6.84557 15.0533 6.50646C14.9167 6.15568 14.7344 5.85812 14.4378 5.56167C14.1411 5.265 13.8444 5.08278 13.4933 4.94667C13.1533 4.81478 12.7655 4.72489 12.1977 4.69889C11.6288 4.673 11.4477 4.66666 9.99883 4.66666H10.0005Z" fill="white"/>
<path fill-rule="evenodd" clip-rule="evenodd" d="M9.52205 5.62778C9.66405 5.62756 9.82249 5.62778 10.0005 5.62778C11.4245 5.62778 11.5933 5.6329 12.1556 5.65845C12.6756 5.68223 12.9579 5.76912 13.1459 5.84212C13.3948 5.93879 13.5722 6.05434 13.7588 6.24101C13.9454 6.42768 14.061 6.60546 14.1579 6.85435C14.2309 7.04213 14.3179 7.32436 14.3415 7.84436C14.3671 8.40659 14.3726 8.57548 14.3726 9.99883C14.3726 11.4222 14.3671 11.5911 14.3415 12.1533C14.3178 12.6733 14.2309 12.9555 14.1579 13.1433C14.0612 13.3922 13.9454 13.5694 13.7588 13.756C13.5721 13.9426 13.3949 14.0582 13.1459 14.1549C12.9581 14.2282 12.6756 14.3149 12.1556 14.3386C11.5934 14.3642 11.4245 14.3698 10.0005 14.3698C8.57637 14.3698 8.40759 14.3642 7.84536 14.3386C7.32536 14.3146 7.04313 14.2278 6.85502 14.1548C6.60613 14.0581 6.42835 13.9425 6.24168 13.7559C6.05501 13.5692 5.93945 13.3919 5.84256 13.1429C5.76956 12.9551 5.68256 12.6729 5.6589 12.1528C5.63334 11.5906 5.62823 11.4217 5.62823 9.99749C5.62823 8.57326 5.63334 8.40526 5.6589 7.84303C5.68267 7.32302 5.76956 7.0408 5.84256 6.8528C5.93923 6.60391 6.05501 6.42613 6.24168 6.23946C6.42835 6.05279 6.60613 5.93723 6.85502 5.84034C7.04302 5.76701 7.32536 5.68034 7.84536 5.65645C8.33737 5.63423 8.52804 5.62756 9.52205 5.62645V5.62778ZM12.8474 6.51335C12.4941 6.51335 12.2074 6.79968 12.2074 7.15313C12.2074 7.50647 12.4941 7.79314 12.8474 7.79314C13.2007 7.79314 13.4874 7.50647 13.4874 7.15313C13.4874 6.7998 13.2007 6.51335 12.8474 6.51335ZM10.0005 7.26113C8.48792 7.26113 7.26158 8.48748 7.26158 10C7.26158 11.5126 8.48792 12.7384 10.0005 12.7384C11.5131 12.7384 12.739 11.5126 12.739 10C12.739 8.48748 11.5131 7.26113 10.0005 7.26113Z" fill="white"/>
<path fill-rule="evenodd" clip-rule="evenodd" d="M10.0005 8.22225C10.9823 8.22225 11.7783 9.01815 11.7783 10C11.7783 10.9818 10.9823 11.7778 10.0005 11.7778C9.0186 11.7778 8.2227 10.9818 8.2227 10C8.2227 9.01815 9.0186 8.22225 10.0005 8.22225Z" fill="white"/>
</svg>
