<svg width="20" height="20" viewBox="0 0 20 20" fill="none" xmlns="http://www.w3.org/2000/svg">
<path fill-rule="evenodd" clip-rule="evenodd" d="M0 9.99999C0 4.47715 4.47715 0 9.99999 0C15.5228 0 20 4.47715 20 9.99999C20 15.5228 15.5228 20 9.99999 20C4.47715 20 0 15.5228 0 9.99999ZM9.7005 8.12812L9.72148 8.47414L9.37174 8.43177C8.09869 8.26935 6.98652 7.71854 6.04222 6.79346L5.58057 6.33445L5.46165 6.67341C5.20984 7.42901 5.37072 8.22698 5.89533 8.76367C6.17512 9.06026 6.11217 9.10263 5.62953 8.92609C5.46165 8.8696 5.31476 8.82723 5.30077 8.84841C5.25181 8.89784 5.41968 9.54046 5.55259 9.79468C5.73445 10.1478 6.10517 10.4938 6.51087 10.6986L6.85362 10.861L6.44792 10.8681C6.05621 10.8681 6.04222 10.8751 6.08419 11.0234C6.22409 11.4824 6.77667 11.9697 7.39221 12.1815L7.82589 12.3298L7.44817 12.5558C6.88859 12.8806 6.23108 13.0642 5.57357 13.0784C5.2588 13.0854 5 13.1137 5 13.1349C5 13.2055 5.85336 13.6009 6.34999 13.7563C7.83988 14.2153 9.60956 14.0176 10.9386 13.2337C11.8829 12.6758 12.8272 11.5672 13.2678 10.4938C13.5057 9.92179 13.7435 8.87666 13.7435 8.37528C13.7435 8.05044 13.7645 8.00807 14.1562 7.61968C14.387 7.39371 14.6038 7.14655 14.6458 7.07593C14.7158 6.94176 14.7088 6.94176 14.352 7.06181C13.7575 7.27366 13.6735 7.24541 13.9673 6.92764C14.1842 6.70166 14.443 6.29208 14.443 6.17203C14.443 6.15085 14.338 6.18616 14.2191 6.24971C14.0932 6.32033 13.8134 6.42626 13.6036 6.48981L13.2259 6.60986L12.8831 6.37682C12.6943 6.24971 12.4285 6.10848 12.2886 6.06611C11.9318 5.96725 11.3862 5.98137 11.0645 6.09436C10.1901 6.41213 9.63754 7.23129 9.7005 8.12812Z" fill="white"/>
</svg>
