<svg width="20" height="20" viewBox="0 0 20 20" fill="none" xmlns="http://www.w3.org/2000/svg">
<path fill-rule="evenodd" clip-rule="evenodd" d="M0 9.99999C0 4.47715 4.47715 0 9.99999 0C15.5228 0 20 4.47715 20 9.99999C20 15.5228 15.5228 20 9.99999 20C4.47715 20 0 15.5228 0 9.99999ZM15.1104 7.5305C14.9877 7.05925 14.6263 6.68816 14.1673 6.56222C13.3356 6.33333 9.99999 6.33333 9.99999 6.33333C9.99999 6.33333 6.66442 6.33333 5.8326 6.56222C5.37363 6.68816 5.01218 7.05925 4.88951 7.5305C4.66666 8.38459 4.66666 10.1667 4.66666 10.1667C4.66666 10.1667 4.66666 11.9487 4.88951 12.8028C5.01218 13.2741 5.37363 13.6452 5.8326 13.7712C6.66442 14 9.99999 14 9.99999 14C9.99999 14 13.3356 14 14.1673 13.7712C14.6263 13.6452 14.9877 13.2741 15.1104 12.8028C15.3333 11.9487 15.3333 10.1667 15.3333 10.1667C15.3333 10.1667 15.3333 8.38459 15.1104 7.5305Z" fill="white"/>
<path fill-rule="evenodd" clip-rule="evenodd" d="M9 11.9999V8.66658L11.6667 10.3333L9 11.9999Z" fill="white"/>
</svg>
